<svg id="full" xmlns="http://www.w3.org/2000/svg" width="32" height="32" viewBox="0 0 32 32" fill="none">
  <circle opacity="0.500647" cx="16" cy="16" r="16" fill="#10141E"/>
  <path d="M20.6094 9C20.7491 9 20.8828 9.02776 21.0104 9.08328C21.2109 9.16347 21.3704 9.28993 21.4889 9.46266C21.6074 9.63538 21.6667 9.82661 21.6667 10.0364V21.9636C21.6667 22.1734 21.6074 22.3646 21.4889 22.5373C21.3704 22.7101 21.2109 22.8365 21.0104 22.9167C20.895 22.9661 20.7613 22.9907 20.6094 22.9907C20.3177 22.9907 20.0655 22.892 19.8529 22.6946L15.8333 18.7713L11.8138 22.6946C11.5951 22.8982 11.3429 23 11.0573 23C10.9175 23 10.7839 22.9722 10.6562 22.9167C10.4557 22.8365 10.2962 22.7101 10.1777 22.5373C10.0592 22.3646 10 22.1734 10 21.9636V10.0364C10 9.82661 10.0592 9.63538 10.1777 9.46266C10.2962 9.28993 10.4557 9.16347 10.6562 9.08328C10.7839 9.02776 10.9175 9 11.0573 9H20.6094Z" fill="white"/>
</svg>